<svg width="172" height="32" viewBox="0 0 172 32" fill="none" xmlns="http://www.w3.org/2000/svg">
<g clip-path="url(#clip0_125_151)">
<path d="M15.6368 32C24.2727 32 31.2731 24.8368 31.2731 16V4.8C31.2731 3.52696 30.7789 2.30606 29.8992 1.40589C29.0195 0.505713 27.8263 0 26.5822 0L16.4186 0V7.0192C16.4186 8.6208 16.514 10.28 17.3349 11.6432C17.9226 12.6202 18.7087 13.4564 19.6401 14.095C20.5714 14.7337 21.6261 15.1599 22.7325 15.3448L23.032 15.3944C23.1554 15.4376 23.2626 15.5192 23.3385 15.6278C23.4143 15.7364 23.4551 15.8665 23.4551 16C23.4551 16.1335 23.4143 16.2636 23.3385 16.3722C23.2626 16.4808 23.1554 16.5624 23.032 16.6056L22.7325 16.6552C21.1159 16.9254 19.623 17.7085 18.4647 18.8937C17.3064 20.0789 16.5412 21.6065 16.2771 23.2608L16.2286 23.5672C16.1864 23.6935 16.1067 23.8032 16.0005 23.8808C15.8944 23.9585 15.7672 24.0002 15.6368 24.0002C15.5063 24.0002 15.3791 23.9585 15.273 23.8808C15.1669 23.8032 15.0871 23.6935 15.0449 23.5672L14.9965 23.2608C14.8158 22.1286 14.3992 21.0494 13.775 20.0964C13.1509 19.1435 12.3337 18.339 11.379 17.7376C10.0468 16.8976 8.42527 16.8 6.86007 16.8H0.019165C0.428056 25.2648 7.26349 32 15.6368 32Z" fill="#7A5AF8"/>
<path d="M0 15.2H6.85967C8.42487 15.2 10.0464 15.1024 11.3786 14.2624C12.42 13.6058 13.2966 12.7088 13.9383 11.6432C14.7592 10.28 14.8545 8.6208 14.8545 7.0192V0H4.69091C3.4468 0 2.25365 0.505713 1.37394 1.40589C0.494219 2.30606 0 3.52696 0 4.8L0 15.2ZM36.3194 1.6C36.3194 2.02435 36.1546 2.43131 35.8614 2.73137C35.5681 3.03143 35.1704 3.2 34.7557 3.2C34.341 3.2 33.9433 3.03143 33.6501 2.73137C33.3568 2.43131 33.1921 2.02435 33.1921 1.6C33.1921 1.17565 33.3568 0.768687 33.6501 0.468629C33.9433 0.168571 34.341 0 34.7557 0C35.1704 0 35.5681 0.168571 35.8614 0.468629C36.1546 0.768687 36.3194 1.17565 36.3194 1.6ZM165.52 9.6832C169.891 9.6832 172 12.8072 172 16.4256V23.2216H167.426V17.232C167.426 15.592 166.841 14.2384 165.164 14.2384C163.487 14.2384 162.928 15.592 162.928 17.232V23.2208H158.353V17.232C158.353 15.592 157.794 14.2384 156.117 14.2384C154.44 14.2384 153.855 15.592 153.855 17.232V23.2208H149.281V16.4248C149.281 12.8064 151.39 9.6824 155.761 9.6824C158.15 9.6824 159.878 10.6456 160.666 12.2336C161.504 10.6456 163.334 9.6816 165.52 9.6816V9.6832ZM141.061 19.056C142.535 19.056 143.17 17.676 143.17 16.0352V10.2032H147.744V16.608C147.744 20.4352 145.559 23.612 141.061 23.612C136.563 23.612 134.377 20.436 134.377 16.608V10.2032H138.952V16.0352C138.952 17.6752 139.587 19.056 141.061 19.056ZM127.651 23.6376C124.78 23.6376 122.924 22.6224 121.832 20.644L125.135 18.7432C125.593 19.576 126.278 19.9928 127.422 19.9928C128.363 19.9928 128.794 19.6544 128.794 19.2376C128.794 17.6496 122.086 19.264 122.086 14.2136C122.086 11.7656 124.118 9.7872 127.575 9.7872C130.599 9.7872 132.251 11.2968 132.988 12.7552L129.684 14.6816C129.405 13.9008 128.54 13.432 127.676 13.432C127.016 13.432 126.66 13.7184 126.66 14.1088C126.66 15.7232 133.369 14.2392 133.369 19.1336C133.369 21.8672 130.751 23.6376 127.651 23.6376ZM111.669 29.2096H107.095V16.6864C107.095 12.7024 110.017 9.8128 114.084 9.8128C118.048 9.8128 121.072 12.9112 121.072 16.6864C121.072 20.852 118.378 23.612 114.338 23.612C113.397 23.612 112.458 23.3256 111.669 22.8824V29.2096ZM114.084 19.212C115.532 19.212 116.498 18.0664 116.498 16.712C116.498 15.3328 115.532 14.2128 114.084 14.2128C112.635 14.2128 111.669 15.3328 111.669 16.7128C111.669 18.0664 112.635 19.212 114.084 19.212ZM102.513 8.824C101.013 8.824 99.7686 7.548 99.7686 6.012C99.7686 4.476 101.013 3.2 102.513 3.2C104.012 3.2 105.258 4.476 105.258 6.012C105.258 7.548 104.012 8.824 102.513 8.824ZM100.226 10.2032H104.8V23.2216H100.226V10.2032ZM91.4493 23.612C87.4847 23.612 84.4606 20.488 84.4606 16.6864C84.4606 12.9112 87.4847 9.7872 91.4493 9.7872C95.4139 9.7872 98.438 12.9112 98.438 16.6864C98.438 20.488 95.4139 23.612 91.4493 23.612ZM91.4493 19.212C92.898 19.212 93.8635 18.0664 93.8635 16.712C93.8635 15.3328 92.898 14.1872 91.4493 14.1872C90.0006 14.1872 89.035 15.3328 89.035 16.712C89.035 18.0664 90.0006 19.212 91.4493 19.212ZM75.8231 29.6C72.6723 29.6 70.3847 28.168 69.2159 25.616L73.0023 23.5336C73.4088 24.4192 74.1711 25.3304 75.7465 25.3304C77.3992 25.3304 78.4914 24.2624 78.6189 22.388C78.009 22.9352 77.0427 23.3512 75.5948 23.3512C72.0618 23.3512 69.2151 20.5656 69.2151 16.66C69.2151 12.8856 72.24 9.8128 76.2046 9.8128C80.2708 9.8128 83.1933 12.7032 83.1933 16.6864V21.8416C83.1933 26.528 80.016 29.6 75.8231 29.6ZM76.128 18.952C77.5001 18.952 78.5422 17.988 78.5422 16.556C78.5422 15.1504 77.5009 14.2128 76.128 14.2128C74.7809 14.2128 73.7137 15.1504 73.7137 16.5568C73.7137 17.9888 74.7809 18.9512 76.128 18.9512V18.952ZM61.4564 23.612C57.4918 23.612 54.4669 20.488 54.4669 16.6864C54.4669 12.9112 57.4918 9.7872 61.4564 9.7872C65.4202 9.7872 68.4451 12.9112 68.4451 16.6864C68.4451 20.488 65.421 23.612 61.4564 23.612ZM61.4564 19.212C62.9051 19.212 63.8706 18.0664 63.8706 16.712C63.8706 15.3328 62.9051 14.1872 61.4564 14.1872C60.0077 14.1872 59.0421 15.3328 59.0421 16.712C59.0421 18.0664 60.0077 19.212 61.4564 19.212ZM46.1374 5.648V18.7952H53.7109V23.2216H45.5018C42.6052 23.2216 41.4364 21.6592 41.4364 19.1856V5.648H46.1374Z" fill="#1E1F24"/>
</g>
<defs>
<clipPath id="clip0_125_151">
<rect width="172" height="32" fill="white"/>
</clipPath>
</defs>
</svg>
