<svg width="131" height="27" viewBox="0 0 131 27" fill="none" xmlns="http://www.w3.org/2000/svg">
<path d="M124.356 6.4832C128.727 6.4832 130.837 9.6072 130.837 13.2256V20.0216H126.262V14.032C126.262 12.392 125.677 11.0384 124 11.0384C122.323 11.0384 121.764 12.392 121.764 14.032V20.0208H117.19V14.032C117.19 12.392 116.631 11.0384 114.953 11.0384C113.276 11.0384 112.691 12.392 112.691 14.032V20.0208H108.118V13.2248C108.118 9.6064 110.226 6.4824 114.597 6.4824C116.987 6.4824 118.714 7.4456 119.503 9.0336C120.341 7.4456 122.171 6.4816 124.356 6.4816V6.4832ZM99.8977 15.856C101.371 15.856 102.007 14.476 102.007 12.8352V7.0032H106.581V13.408C106.581 17.2352 104.395 20.412 99.8977 20.412C95.3991 20.412 93.2139 17.236 93.2139 13.408V7.0032H97.7883V12.8352C97.7883 14.4752 98.4232 15.856 99.8977 15.856ZM86.4879 20.4376C83.6163 20.4376 81.7611 19.4224 80.6681 17.444L83.9721 15.5432C84.4294 16.376 85.1151 16.7928 86.2589 16.7928C87.1994 16.7928 87.631 16.4544 87.631 16.0376C87.631 14.4496 80.9222 16.064 80.9222 11.0136C80.9222 8.5656 82.9549 6.5872 86.4113 6.5872C89.4354 6.5872 91.0874 8.0968 91.8246 9.5552L88.5207 11.4816C88.2416 10.7008 87.3769 10.232 86.513 10.232C85.8523 10.232 85.4966 10.5184 85.4966 10.9088C85.4966 12.5232 92.2054 11.0392 92.2054 15.9336C92.2054 18.6672 89.5879 20.4376 86.4879 20.4376ZM70.506 26.0096H65.9316V13.4864C65.9316 9.5024 68.854 6.6128 72.9203 6.6128C76.8849 6.6128 79.909 9.7112 79.909 13.4864C79.909 17.652 77.2148 20.412 73.1744 20.412C72.2338 20.412 71.2941 20.1256 70.506 19.6824V26.0096ZM72.9203 16.012C74.369 16.012 75.3345 14.8664 75.3345 13.512C75.3345 12.1328 74.369 11.0128 72.9203 11.0128C71.4716 11.0128 70.506 12.1328 70.506 13.5128C70.506 14.8664 71.4716 16.012 72.9203 16.012ZM61.3494 5.624C59.8498 5.624 58.6052 4.348 58.6052 2.812C58.6052 1.276 59.8498 0 61.3494 0C62.8489 0 64.0943 1.276 64.0943 2.812C64.0943 4.348 62.8489 5.624 61.3494 5.624ZM59.0625 7.0032H63.637V20.0216H59.0625V7.0032ZM50.2859 20.412C46.3213 20.412 43.2972 17.288 43.2972 13.4864C43.2972 9.7112 46.3213 6.5872 50.2859 6.5872C54.2505 6.5872 57.2745 9.7112 57.2745 13.4864C57.2745 17.288 54.2505 20.412 50.2859 20.412ZM50.2859 16.012C51.7346 16.012 52.7001 14.8664 52.7001 13.512C52.7001 12.1328 51.7346 10.9872 50.2859 10.9872C48.8372 10.9872 47.8716 12.1328 47.8716 13.512C47.8716 14.8664 48.8372 16.012 50.2859 16.012ZM34.6597 26.4C31.5089 26.4 29.2213 24.968 28.0525 22.416L31.8389 20.3336C32.2454 21.2192 33.0077 22.1304 34.583 22.1304C36.2358 22.1304 37.328 21.0624 37.4554 19.188C36.8456 19.7352 35.8793 20.1512 34.4314 20.1512C30.8983 20.1512 28.0517 17.3656 28.0517 13.46C28.0517 9.6856 31.0766 6.6128 35.0412 6.6128C39.1074 6.6128 42.0299 9.5032 42.0299 13.4864V18.6416C42.0299 23.328 38.8525 26.4 34.6597 26.4ZM34.9646 15.752C36.3367 15.752 37.3788 14.788 37.3788 13.356C37.3788 11.9504 36.3374 11.0128 34.9646 11.0128C33.6175 11.0128 32.5503 11.9504 32.5503 13.3568C32.5503 14.7888 33.6175 15.752 34.9646 15.752ZM20.293 20.412C16.3284 20.412 13.3035 17.288 13.3035 13.4864C13.3035 9.7112 16.3284 6.5872 20.293 6.5872C24.2568 6.5872 27.2816 9.7112 27.2816 13.4864C27.2816 17.288 24.2576 20.412 20.293 20.412ZM20.293 16.012C21.7417 16.012 22.7072 14.8664 22.7072 13.512C22.7072 12.1328 21.7417 10.9872 20.293 10.9872C18.8443 10.9872 17.8787 12.1328 17.8787 13.512C17.8787 14.8664 18.8443 16.012 20.293 16.012ZM4.97402 2.448V15.5952H12.5475V20.0216H4.3384C1.44177 20.0216 0.272949 18.4592 0.272949 15.9856V2.448H4.97402Z" fill="#1E1F24"/>
</svg>
