<svg width="32" height="32" viewBox="0 0 32 32" fill="none" xmlns="http://www.w3.org/2000/svg">
<path d="M15.6366 32C24.2726 32 31.273 24.8368 31.273 16V4.8C31.273 3.52696 30.7788 2.30606 29.8991 1.40589C29.0194 0.505713 27.8262 0 26.5821 0L16.4185 0V7.0192C16.4185 8.6208 16.5138 10.28 17.3348 11.6432C17.9224 12.6202 18.7086 13.4564 19.6399 14.095C20.5713 14.7337 21.6259 15.1599 22.7324 15.3448L23.0319 15.3944C23.1553 15.4376 23.2625 15.5192 23.3383 15.6278C23.4142 15.7364 23.455 15.8665 23.455 16C23.455 16.1335 23.4142 16.2636 23.3383 16.3722C23.2625 16.4808 23.1553 16.5624 23.0319 16.6056L22.7324 16.6552C21.1158 16.9254 19.6229 17.7085 18.4646 18.8937C17.3063 20.0789 16.541 21.6065 16.277 23.2608L16.2285 23.5672C16.1863 23.6935 16.1065 23.8032 16.0004 23.8808C15.8943 23.9585 15.7671 24.0002 15.6366 24.0002C15.5062 24.0002 15.379 23.9585 15.2729 23.8808C15.1667 23.8032 15.087 23.6935 15.0448 23.5672L14.9963 23.2608C14.8156 22.1286 14.3991 21.0494 13.7749 20.0964C13.1508 19.1435 12.3336 18.339 11.3789 17.7376C10.0466 16.8976 8.42515 16.8 6.85995 16.8H0.019043C0.427934 25.2648 7.26337 32 15.6366 32Z" fill="#7A5AF8"/>
<path d="M0 15.2H6.85967C8.42487 15.2 10.0464 15.1024 11.3786 14.2624C12.42 13.6058 13.2966 12.7088 13.9383 11.6432C14.7592 10.28 14.8545 8.6208 14.8545 7.0192V0H4.69091C3.4468 0 2.25365 0.505713 1.37394 1.40589C0.494219 2.30606 0 3.52696 0 4.8L0 15.2Z" fill="#1E1F24"/>
</svg>
